<svg xmlns="http://www.w3.org/2000/svg" viewBox="0 0 120 120"><g fill="none" fill-rule="evenodd"><rect width="120" height="120" fill="#1B2127" rx="40"/><g fill="#FFF" transform="translate(24 39)"><ellipse cx="36" cy="21" rx="36" ry="7"/><path fill-rule="nonzero" d="M21.4 22h28.2c2.4 0 4.4-1.1 4.4-2.5v-17C54 1 52 0 49.6 0H21.4C19 0 17 1.1 17 2.5v17c0 1.4 2 2.5 4.4 2.5Zm32 10H17.6c-.3 0-.6.3-.6.6v.4c0 .3.3.6.6.6l-.1.8c0 4.2 3.3 7.6 7.5 7.6a7.6 7.6 0 0 0 7.4-8.4h6.2v.8c0 4.2 3.3 7.6 7.4 7.6a7.6 7.6 0 0 0 7.5-8.4c.2 0 .5-.3.5-.6v-.4c0-.3-.3-.6-.6-.6Z"/></g></g></svg>
