<svg xmlns="http://www.w3.org/2000/svg" xmlns:xlink="http://www.w3.org/1999/xlink" version="1.1" x="0px" y="0px" viewBox="0 0 100 100" enable-background="new 0 0 100 100" xml:space="preserve"><g><path fill-rule="evenodd" clip-rule="evenodd" d="M73.612,42.816v4.846c0,1.159-0.782,2.168-2.04,2.86   c-1.102,0.606-2.604,0.983-4.238,0.983H32.666c-1.634,0-3.136-0.377-4.238-0.983c-1.257-0.692-2.039-1.701-2.039-2.86v-4.846   c-12.097,1.47-20.11,4.043-20.11,6.968c0,4.571,19.574,8.276,43.721,8.276c24.147,0,43.722-3.705,43.722-8.276   C93.722,46.86,85.709,44.289,73.612,42.816z"></path><path fill-rule="evenodd" clip-rule="evenodd" d="M32.666,50.641h34.668c2.978,0,5.414-1.341,5.414-2.979v-20.73   c0-1.639-2.436-2.979-5.414-2.979H32.666c-2.978,0-5.414,1.339-5.414,2.979v20.73C27.252,49.3,29.688,50.641,32.666,50.641z"></path><path fill-rule="evenodd" clip-rule="evenodd" d="M72.357,63.814H27.642c-0.406,0-0.739,0.332-0.739,0.738v0.47   c0,0.406,0.333,0.739,0.739,0.739h-0.087c-0.03,0.306-0.045,0.616-0.045,0.929c0,5.167,4.189,9.356,9.356,9.356   c5.167,0,9.355-4.189,9.355-9.356c0-0.313-0.016-0.623-0.045-0.929h7.649c-0.03,0.306-0.045,0.616-0.045,0.929   c0,5.167,4.188,9.356,9.355,9.356c5.167,0,9.356-4.189,9.356-9.356c0-0.313-0.016-0.623-0.046-0.929h-0.088   c0.408,0,0.74-0.333,0.74-0.739v-0.47C73.098,64.146,72.766,63.814,72.357,63.814z"></path></g></svg>